# AST/ASF file generated using VICON BodyLanguage
# -----------------------------------------------
:version 1.10
:name VICON
:units
  mass 1.0
  length 0.45
  angle deg
:documentation
   .ast/.asf automatically generated from VICON data using
   VICON BodyBuilder and BodyLanguage model FoxedUp or BRILLIANT.MOD
:root
   order TX TY TZ RX RY RZ
   axis XYZ
   position 0 0 0  
   orientation 0 0 0 
:bonedata
  begin
     id 1 
     name lhipjoint
     direction 0.61886 -0.69539 0.365302 
     length 2.20474 
     axis 0 0 0  XYZ
  end
  begin
     id 2 
     name lfemur
     direction 0.34202 -0.939693 0  
     length 6.65149  
     axis 0 0 20  XYZ
    dof rx ry rz
    limits (-160.0 20.0)
           (-70.0 70.0)
           (-60.0 70.0)
  end
  begin
     id 3 
     name ltibia
     direction 0.34202 -0.939693 0   
     length 6.35814   
     axis 0 0 20   XYZ
    dof rx
    limits (-10.0 170.0)
  end
  begin
     id 4 
     name lfoot
     direction 0.101224 -0.278109 0.955201   
     length 2.18766   
     axis -90 7.62852e-016 20   XYZ
    dof rx rz
    limits (-45.0 90.0)
           (-70.0 20.0)
  end
  begin
     id 5 
     name ltoes
     direction 1.53524e-011 -4.21877e-011 1   
     length 1.09206   
     axis -90 7.62852e-016 20   XYZ
    dof rx
    limits (-90.0 20.0)
  end
  begin
     id 6 
     name rhipjoint
     direction -0.600207 -0.708087 0.371972   
     length 2.1652  
     axis 0 0 0  XYZ 
  end
  begin
     id 7 
     name rfemur
     direction -0.34202 -0.939693 0   
     length 6.54691   
     axis 0 0 -20   XYZ
    dof rx ry rz
    limits (-160.0 20.0)
           (-70.0 70.0)
           (-70.0 60.0)
  end
  begin
     id 8 
     name rtibia
     direction -0.34202 -0.939693 0   
     length 6.37474   
     axis 0 0 -20   XYZ
    dof rx
    limits (-10.0 170.0)
 end
 begin
     id 9 
     name rfoot
     direction -0.111266 -0.3057 0.945604   
     length 2.00903  
     axis -90 -7.62852e-016 -20   XYZ
    dof rx rz
    limits (-45.0 90.0)
           (-20.0 70.0)
  end
  begin
     id 10 
     name rtoes
     direction -1.5362e-011 -4.21913e-011 1   
     length 1.00221   
     axis -90 -7.62852e-016 -20   XYZ
    dof rx
    limits (-90.0 20.0)
  end
  begin
     id 11 
     name lowerback
     direction -0.0224561 0.999731 -0.00577314   
     length 2.10409   
     axis 0 0 0   XYZ
    dof rx ry rz
    limits (-20.0 45.0)
           (-30.0 30.0)
           (-30.0 30.0)
  end
  begin
     id 12 
     name upperback
     direction 0.0213126 0.999185 -0.0342817   
     length 2.09783   
     axis 0 0 0   XYZ
    dof rx ry rz
    limits (-20.0 45.0)
           (-30.0 30.0)
           (-30.0 30.0)
  end
  begin
     id 13 
     name thorax
     direction 0.0312356 0.999036 -0.0308451   
     length 2.09788   
     axis 0 0 0   XYZ
    dof rx ry rz
    limits (-20.0 45.0)
           (-30.0 30.0)
           (-30.0 30.0)
  end
  begin
     id 14 
     name lowerneck
     direction -0.0114419 0.996481 0.0830329   
     length 1.38575   
     axis 0 0 0   XYZ
    dof rx ry rz
    limits (-20.0 45.0)
           (-30.0 30.0)
           (-30.0 30.0)
  end
  begin
     id 15 
     name upperneck
     direction -0.0075675 0.996187 -0.0869092   
     length 1.39401   
     axis 0 0 0   XYZ
    dof rx ry rz
    limits (-20.0 45.0)
           (-30.0 30.0)
           (-30.0 30.0)
  end
  begin
     id 16
     name head
     direction -0.00222073 0.999264 -0.0382974  
     length 1.3964  
     axis 0 0 0   XYZ
    dof rx ry rz
    limits (-20.0 45.0)
           (-30.0 30.0)
           (-30.0 30.0)
  end
  begin
     id 17 
     name lclavicle
     direction 0.965962 0.222138 0.132556  
     length 2.81514  
     axis 0 0 0   XYZ
    dof ry rz
    limits (-20.0 10.0)
           (0.0 20.0)
  end
  begin
     id 18 
     name lhumerus
     direction 1 -4.48972e-011 7.03471e-018   
     length 4.47366   
     axis 180 -30 -90   XYZ
    dof rx ry rz
    limits (-60.0 90.0)
           (-90.0 90.0)
           (-90.0 90.0)
  end
  begin
     id 19
     name lradius
     direction 1 -4.48951e-011 -6.22192e-028   
     length 3.19948   
     axis 180 -30 -90   XYZ
    dof rx
    limits (-10.0 170.0)
  end
  begin
     id 20
     name lwrist
     direction 1 -4.48967e-011 -1.24264e-027   
     length 1.59974   
     axis 1.40095e-015 90 90   XYZ
    dof ry
    limits (-180.0 0.0)
 end
  begin
     id 21 
     name lhand
     direction 1 -4.4897e-011 -2.48528e-027   
     length 0.492667   
     axis 1.58582e-015 90 90   XYZ
    dof rx rz
    limits (-90.0 90.0)
           (-45.0 45.0)
  end
  begin
     id 22 
     name lfingers
     direction 1 -4.48996e-011 -4.97056e-027   
     length 0.397201   
     axis 3.17164e-015 90 90   XYZ
    dof rx
    limits (0.0 90.0)
  end
  begin
     id 23
     name lthumb
     direction 0.707107 -6.34981e-011 0.707107   
     length 0.570303   
     axis -90 45 2.85299e-015   XYZ
    dof rx rz
    limits (-45.0 45.0)
           (-45.0 45.0)
  end
  begin
     id 24 
     name rclavicle
     direction -0.961164 0.229034 0.153972   
     length 3.09348  
     axis 0 0 0   XYZ 
    dof ry rz
    limits (-10.0 20.0)
           (-20.0 0.0)
  end
  begin
     id 25 
     name rhumerus
     direction -1 -4.48971e-011 -9.06263e-028  
     length 4.3269   
     axis 180 30 90   XYZ
    dof rx ry rz
    limits (-90.0 60.0)
           (-90.0 90.0)
           (-90.0 90.0)
  end
  begin
     id 26 
     name rradius
     direction -1 -4.48953e-011 1.44659e-027   
     length 3.1896   
     axis 180 30 90   XYZ
    dof rx
    limits (-10.0 170.0)
  end
  begin
     id 27 
     name rwrist
     direction -1 -4.48988e-011 -1.24264e-027   
     length 1.5948   
     axis 1.40095e-015 -90 -90   XYZ
    dof ry
    limits (-180.0 0.0)
  end
  begin
     id 28
     name rhand
     direction -1 -4.49033e-011 -2.48528e-027   
     length 0.464496   
     axis 1.58582e-015 -90 -90   XYZ
    dof rx rz
    limits (-90.0 90.0)
           (-45.0 45.0)
  end
  begin
     id 29
     name rfingers
     direction -1 -4.48905e-011 -4.97056e-027   
     length 0.374489   
     axis 3.17164e-015 -90 -90   XYZ
    dof rx
    limits (0.0 90.0)
  end
  begin
     id 30
     name rthumb
     direction -0.707107 -6.34909e-011 0.707107   
     length 0.537693   
     axis -90 -45 -2.85299e-015   XYZ
    dof rx rz
    limits (-45.0 45.0)
           (-45.0 45.0)
  end
:hierarchy
  begin
    root lhipjoint rhipjoint lowerback
    lhipjoint lfemur
    lfemur ltibia
    ltibia lfoot
    lfoot ltoes
    rhipjoint rfemur
    rfemur rtibia
    rtibia rfoot
    rfoot rtoes
    lowerback upperback
    upperback thorax
    thorax lowerneck lclavicle rclavicle
    lowerneck upperneck
    upperneck head
    lclavicle lhumerus
    lhumerus lradius
    lradius lwrist
    lwrist lhand lthumb
    lhand lfingers
    rclavicle rhumerus
    rhumerus rradius
    rradius rwrist
    rwrist rhand rthumb
    rhand rfingers
  end

#!OML:ASF G:\acrobat\cartwheel_test 2\Patient 1\Session 2\acrobat4.ASF
:FULLY-SPECIFIED
:DEGREES
2819
root 9.44148 20.3466 -8.45351 542.725 -5.07325 183.933
lowerback 1.47337 0.928551 -2.76531
upperback 2.06415 1.13376 -1.82497
thorax 1.27199 0.496784 -0.326428
lowerneck -8.93446 -1.46998 -4.34547
upperneck 33.4254 -8.51496 9.22872
head 13.294 -4.54321 2.8923
rclavicle -1.19271e-015 1.59028e-014
rhumerus -13.329 -29.1328 2.62634
rradius 26.276
rwrist 25.2073
rhand -19.3948 -24.9438
rfingers 7.12502
rthumb 6.92402 305.189
lclavicle -1.19271e-015 1.59028e-014
lhumerus -0.113972 30.5237 -0.409972
lradius 32.061
lwrist 43.1367
lhand -46.9264 740.673
lfingers 7.12502
lthumb -19.6366 -670.299
rfemur -26.2595 0.291411 21.9874
rtibia 57.5653
rfoot -21.3815 -13.3558
rtoes -24.6823
lfemur -27.5599 14.8791 -25.4961
ltibia 54.4005
lfoot -25.8294 15.5094
ltoes -32.6228
2820
root 9.46705 20.352 -8.68638 542.673 -5.48475 184.035
lowerback 1.5088 0.775719 -3.13609
upperback 2.23835 0.91687 -1.93503
thorax 1.43046 0.3741 -0.231024
lowerneck -8.60039 -1.26148 -4.22589
upperneck 33.6837 -8.39605 9.23
head 13.3171 -4.52027 2.89379
rclavicle 6.36111e-015 7.95139e-015
rhumerus -13.5843 -30.1604 3.14281
rradius 25.669
rwrist 25.3341
rhand -19.0367 -25.3435
rfingers 7.12502
rthumb 7.26975 304.801
lclavicle 6.36111e-015 7.95139e-015
lhumerus -0.364531 29.7396 1.74602
lradius 31.8406
lwrist 43.1893
lhand -46.8349 740.633
lfingers 7.12502
lthumb -19.5485 -670.329
rfemur -28.7395 0.147109 22.3323
rtibia 55.8284
rfoot -20.9593 -13.1558
rtoes -24.2978
lfemur -26.2849 14.4423 -25.0202
ltibia 54.1328
lfoot -26.0713 16.4418
ltoes -34.2717
2821
root 9.48503 20.3729 -8.91595 542.555 -5.73026 183.988
lowerback 1.67533 0.608621 -3.62018
upperback 2.37216 0.67002 -2.05829
thorax 1.4757 0.234559 -0.0877612
lowerneck -8.42604 -1.0192 -4.37755
upperneck 34.1059 -8.29889 9.42943
head 13.4716 -4.52438 3.01739
rclavicle -1.0138e-014 3.49861e-014
rhumerus -13.4557 -30.9781 3.40663
rradius 25.2908
rwrist 25.123
rhand -18.645 -25.9941
rfingers 7.12502
rthumb 7.64784 304.164
lclavicle -1.0138e-014 3.49861e-014
lhumerus -0.867526 29.3332 3.83924
lradius 31.6962
lwrist 43.0277
lhand -47.2062 740.401
lfingers 7.12502
lthumb -19.9055 -670.598
rfemur -31.0284 -0.744513 22.8991
rtibia 53.9849
rfoot -20.1131 -12.1204
rtoes -25.9384
lfemur -24.7309 14.0963 -24.8053
ltibia 53.5083
lfoot -27.0224 17.0204
ltoes -33.3381
2822
root 9.49473 20.4048 -9.14 542.48 -5.94527 183.873
lowerback 1.82187 0.659926 -3.79611
upperback 2.48093 0.702687 -2.53611
thorax 1.50838 0.235837 -0.481848
lowerneck -8.35044 -0.95485 -4.12033
upperneck 34.3828 -8.67201 9.98756
head 13.6441 -4.63838 3.13959
rclavicle 2.10712e-014 4.6118e-014
rhumerus -14.3929 -31.5936 3.97108
rradius 25.2708
rwrist 24.7467
rhand -18.3368 -26.3844
rfingers 7.12502
rthumb 7.9453 303.785
lclavicle 2.10712e-014 4.6118e-014
lhumerus -0.483409 28.6391 6.02584
lradius 31.6574
lwrist 43.3258
lhand -47.8857 740.683
lfingers 7.12502
lthumb -20.5585 -670.386
rfemur -33.2015 -2.59027 23.9439
rtibia 52.1036
rfoot -18.9694 -9.88588
rtoes -27.3094
lfemur -23.1281 13.7811 -24.7787
ltibia 52.6425
lfoot -28.1009 17.5692
ltoes -31.0469
2823
root 9.50216 20.4394 -9.3632 542.473 -6.08075 183.854
lowerback 1.76927 0.575745 -4.0438
upperback 2.55734 0.573328 -2.83342
thorax 1.61985 0.157 -0.648604
lowerneck -8.21455 -0.737087 -3.99095
upperneck 34.5345 -8.67987 10.4276
head 13.7065 -4.61735 3.29257
rclavicle -4.17448e-015 -3.02153e-014
rhumerus -14.5915 -31.6923 4.16991
rradius 25.4288
rwrist 24.0636
rhand -18.3933 -26.3915
rfingers 7.12502
rthumb 7.89079 303.776
lclavicle -4.17448e-015 -3.02153e-014
lhumerus -0.902933 28.0432 7.69786
lradius 31.7043
lwrist 43.3331
lhand -48.005 741.275
lfingers 7.12502
lthumb -20.6732 -669.806
rfemur -35.152 -4.7118 25.6119
rtibia 50.2613
rfoot -17.7626 -7.69915
rtoes -28.0567
lfemur -21.5933 13.6267 -24.6182
ltibia 51.6592
lfoot -28.5499 18.3101
ltoes -29.6139
2824
root 9.51624 20.4806 -9.58633 542.387 -6.17609 183.967
lowerback 1.66509 0.313896 -4.47675
upperback 2.7427 0.222347 -2.84674
thorax 1.8749 -0.0379485 -0.420696
lowerneck -8.67693 -0.422328 -4.1331
upperneck 34.8998 -8.37157 10.6645
head 13.9615 -4.47564 3.45846
rclavicle -9.54166e-015 5.24792e-014
rhumerus -13.6926 -32.428 3.948
rradius 25.4223
rwrist 24.1678
rhand -18.6548 -26.9876
rfingers 7.12502
rthumb 7.63833 303.17
lclavicle -9.54166e-015 5.24792e-014
lhumerus -2.09237 27.9301 8.90738
lradius 31.6327
lwrist 42.8712
lhand -47.8759 741.406
lfingers 7.12502
lthumb -20.5492 -669.662
rfemur -36.6029 -6.48019 27.66
rtibia 48.5617
rfoot -16.0702 -7.51961
rtoes -26.7878
lfemur -20.0086 13.6246 -24.0977
ltibia 50.6292
lfoot -28.5953 18.596
ltoes -29.0269
2825
root 9.53985 20.5215 -9.80498 542.262 -6.28638 183.87
lowerback 1.6698 0.409341 -4.7649
upperback 2.7789 0.309797 -3.4008
thorax 1.90897 -0.0149895 -0.831682
lowerneck -8.64756 -0.296657 -3.56542
upperneck 35.0358 -8.74226 11.3259
head 14.088 -4.53743 3.56683
rclavicle 1.63003e-014 7.15625e-014
rhumerus -14.2655 -33.4552 4.27379
rradius 25.2146
rwrist 25.2661
rhand -18.3687 -27.4297
rfingers 7.12502
rthumb 7.91451 302.738
lclavicle 1.63003e-014 7.15625e-014
lhumerus -1.72465 27.1922 10.2545
lradius 31.4123
lwrist 42.5663
lhand -47.4813 741.433
lfingers 7.12502
lthumb -20.1699 -669.594
rfemur -37.58 -7.94145 29.5552
rtibia 47.0657
rfoot -14.4324 -10.2293
rtoes -22.8826
lfemur -18.3694 13.6905 -23.5952
ltibia 49.5627
lfoot -28.3358 18.3349
ltoes -29.7134
